<mxfile host="app.diagrams.net" modified="2024-07-15T04:11:22.733Z" agent="Mozilla/5.0 (Macintosh; Intel Mac OS X 10_15_7) AppleWebKit/537.36 (KHTML, like Gecko) Chrome/126.0.0.0 Safari/537.36" version="24.6.5" etag="uA0n5O-QaJbayqLMs0x8" type="github">
  <diagram name="Page-1" id="hLBeSpaL_WLC4d95S9IL">
    <mxGraphModel>
      <root>
        <mxCell id="0" />
        <mxCell id="1" parent="0" />
      </root>
    </mxGraphModel>
  </diagram>
</mxfile>
